#N canvas 144 98 904 852 12;
#X obj 401 175 readsf~ 2;
#X msg 399 120 open ./audio/untitled.wav;
#X obj 473 516 dac~;
#X msg 323 146 start;
#X obj 400 67 loadbang;
#X obj 414 408 lop~;
#X floatatom 524 399 5 0 0 0 - - - 0;
#X obj 412 457 lop~;
#X obj 393 255 *~;
#X obj 456 255 *~;
#X floatatom 464 211 5 0 0 0 - - - 0;
#X floatatom 548 209 5 0 0 0 - - - 0;
#X obj 456 315 delwrite~ \$0-echo-del 2000;
#X obj 414 368 +~;
#X obj 455 341 delread~ \$0-echo-del 500;
#X obj 306 69 bng 19 250 50 0 empty empty empty 0 -10 0 12 #fcfcfc #000000 #000000;
#X msg 127 450 open ./audio/outfile.wav;
#X obj 329 526 writesf~ 2;
#X obj 322 113 del 1 100;
#X msg 348 210 stop;
#X connect 0 0 8 0;
#X connect 0 0 9 0;
#X connect 0 2 19 0;
#X connect 1 0 0 0;
#X connect 3 0 0 0;
#X connect 3 0 17 0;
#X connect 4 0 1 0;
#X connect 5 0 7 0;
#X connect 6 0 5 1;
#X connect 6 0 7 1;
#X connect 7 0 2 0;
#X connect 7 0 2 1;
#X connect 7 0 17 0;
#X connect 7 0 17 1;
#X connect 8 0 13 0;
#X connect 9 0 12 0;
#X connect 10 0 8 1;
#X connect 11 0 9 1;
#X connect 13 0 5 0;
#X connect 14 0 13 1;
#X connect 15 0 1 0;
#X connect 15 0 16 0;
#X connect 15 0 18 0;
#X connect 16 0 17 0;
#X connect 18 0 3 0;
#X connect 19 0 17 0;
