#N canvas 171 97 1578 852 12;
#X obj 412 225 readsf~ 2;
#X obj 389 820 dac~;
#X msg 299 214 start;
#X floatatom 887 417 5 0 1 0 - - -;
#X obj 467 365 delwrite~ \$0-echo-del 2000;
#X obj 391 420 +~;
#X obj 317 118 bng 19 250 50 0 empty empty empty 0 -10 0 12 -262144
-1 -1;
#X msg 36 564 open ./audio/outfile.wav;
#X obj 221 603 writesf~ 2;
#X msg 344 316 stop;
#X obj 294 173 del 1 100 msec;
#X msg 160 152 \; pd dsp 1;
#X obj 851 108 netreceive -u -b;
#X msg 850 65 listen 1337;
#X obj 851 153 oscparse;
#X obj 1101 240 print z3;
#X obj 1030 236 print z2;
#X obj 960 260 print z1;
#X obj 929 287 print z0;
#X obj 849 20 loadbang;
#X obj 966 467 del 50 100 msec;
#X msg 965 515 \; pd quit;
#X obj 855 197 unpack symbol float float float float;
#X msg 1271 328 \; pd dsp 0;
#X obj 1213 276 select 0 1 2;
#X obj 404 305 *~ 0.5;
#X obj 467 305 *~ 0.5;
#X obj 295 481 lop~ 100;
#X obj 322 548 lop~ 100;
#X obj 390 501 +~;
#X obj 466 483 *~ 0.3;
#X obj 466 391 delread~ \$0-echo-del 500;
#X obj 468 441 delread~ \$0-echo-del 250;
#X msg 410 170 open ./audio/callRequests.wav;
#X obj 1016 648 expr~ $v1 < $f2;
#X obj 451 524 noise~;
#X obj 1176 698 +~ 1;
#X obj 1128 727 *~;
#X obj 584 592 +~ 1;
#X obj 453 581 *~;
#X floatatom 718 556 5 0 0 0 - - -;
#X obj 716 621 +~ 1;
#X text 883 511 freq2;
#X obj 582 627 *~ 0.5;
#X obj 715 653 *~ 0.5;
#X obj 625 669 +~;
#X obj 1178 665 *~ -1;
#X obj 538 749 *~ -1;
#X obj 538 783 +~ 1;
#X obj 395 642 *~;
#X obj 451 548 *~ 0.06;
#X obj 391 718 +~;
#X obj 615 718 *~ 0.4;
#X floatatom 1170 598 5 0 0 0 - - -;
#X obj 1171 562 hsl 162 19 0 1 0 0 empty empty empty -2 -10 0 12 -262144
-1 -1 0 1;
#X floatatom 546 264 5 0 0 0 - - -;
#X floatatom 666 293 5 0 0 0 - - -;
#X obj 390 457 *~ 2;
#X obj 593 551 osc~ 1.07;
#X obj 717 587 osc~ 0.617;
#X floatatom 595 520 5 0 0 0 - - -;
#X obj 582 468 hsl 162 19 0.1 5 0 0 empty empty empty -2 -10 0 12 -262144
-1 -1 0 1;
#X text 760 475 freq1;
#X obj 715 510 hsl 162 19 0.1 5 0 0 empty empty empty -2 -10 0 12 -262144
-1 -1 0 1;
#X text 1155 194 <-- name \, dry \, rvb \, static \, start;
#X obj 394 751 *~ 0.7;
#X connect 0 0 25 0;
#X connect 0 0 26 0;
#X connect 0 2 9 0;
#X connect 2 0 0 0;
#X connect 2 0 8 0;
#X connect 3 0 52 1;
#X connect 5 0 57 0;
#X connect 6 0 10 0;
#X connect 6 0 11 0;
#X connect 6 0 7 0;
#X connect 6 0 33 0;
#X connect 7 0 8 0;
#X connect 9 0 8 0;
#X connect 10 0 2 0;
#X connect 12 0 14 0;
#X connect 13 0 12 0;
#X connect 14 0 22 0;
#X connect 19 0 13 0;
#X connect 20 0 21 0;
#X connect 22 0 18 0;
#X connect 22 1 17 0;
#X connect 22 1 55 0;
#X connect 22 2 16 0;
#X connect 22 2 56 0;
#X connect 22 3 3 0;
#X connect 22 3 15 0;
#X connect 22 4 24 0;
#X connect 24 1 6 0;
#X connect 24 2 23 0;
#X connect 25 0 5 0;
#X connect 26 0 4 0;
#X connect 29 0 28 0;
#X connect 29 0 49 0;
#X connect 30 0 29 1;
#X connect 31 0 5 1;
#X connect 32 0 30 0;
#X connect 33 0 0 0;
#X connect 35 0 50 0;
#X connect 36 0 37 1;
#X connect 38 0 43 0;
#X connect 39 0 51 1;
#X connect 41 0 44 0;
#X connect 43 0 45 0;
#X connect 44 0 45 1;
#X connect 45 0 52 0;
#X connect 46 0 36 0;
#X connect 47 0 48 0;
#X connect 48 0 49 1;
#X connect 49 0 51 0;
#X connect 50 0 39 0;
#X connect 51 0 65 0;
#X connect 52 0 47 0;
#X connect 52 0 39 1;
#X connect 54 0 53 0;
#X connect 55 0 25 1;
#X connect 56 0 26 1;
#X connect 57 0 29 0;
#X connect 58 0 38 0;
#X connect 59 0 41 0;
#X connect 61 0 60 0;
#X connect 63 0 40 0;
#X connect 65 0 1 0;
#X connect 65 0 1 1;
