#N canvas 174 148 1577 852 12;
#X obj 412 225 readsf~ 2;
#X obj 401 602 dac~;
#X msg 278 213 start;
#X floatatom 535 449 5 0 0 0 - - -;
#X obj 467 365 delwrite~ \$0-echo-del 2000;
#X obj 425 418 +~;
#X obj 466 391 delread~ \$0-echo-del 500;
#X obj 317 119 bng 19 250 50 0 empty empty empty 0 -10 0 12 -262144
-1 -1;
#X msg 36 564 open ./audio/outfile.wav;
#X obj 221 603 writesf~ 2;
#X msg 344 316 stop;
#X obj 282 164 del 1 100 msec;
#X obj 425 458 lop~ 4000;
#X obj 404 305 *~ 1;
#X obj 467 305 *~ 0;
#X obj 423 507 lop~ 4000;
#X msg 170 160 \; pd dsp 1;
#X obj 851 108 netreceive -u -b;
#X msg 850 65 listen 1337;
#X obj 851 153 oscparse;
#X obj 1101 240 print z3;
#X obj 1030 236 print z2;
#X obj 960 260 print z1;
#X obj 929 287 print z0;
#X msg 410 170 open ./audio/fake-reading.wav;
#X obj 849 20 loadbang;
#X obj 183 338 del 50 100 msec;
#X msg 182 386 \; pd quit;
#X text 1155 194 <-- name \, 1-rvb \, rvb \, lpf \, start;
#X obj 1213 276 select 0 1;
#X obj 855 197 unpack symbol float float float float;
#X connect 0 0 13 0;
#X connect 0 0 14 0;
#X connect 0 2 10 0;
#X connect 2 0 0 0;
#X connect 3 0 12 1;
#X connect 3 0 15 1;
#X connect 5 0 12 0;
#X connect 6 0 5 1;
#X connect 7 0 24 0;
#X connect 7 0 11 0;
#X connect 7 0 16 0;
#X connect 8 0 9 0;
#X connect 10 0 9 0;
#X connect 11 0 2 0;
#X connect 12 0 15 0;
#X connect 13 0 5 0;
#X connect 14 0 4 0;
#X connect 15 0 1 0;
#X connect 15 0 1 1;
#X connect 15 0 9 0;
#X connect 15 0 9 1;
#X connect 17 0 19 0;
#X connect 18 0 17 0;
#X connect 19 0 30 0;
#X connect 24 0 0 0;
#X connect 25 0 18 0;
#X connect 26 0 27 0;
#X connect 29 1 7 0;
#X connect 30 0 23 0;
#X connect 30 1 13 1;
#X connect 30 1 22 0;
#X connect 30 2 14 1;
#X connect 30 2 21 0;
#X connect 30 3 3 0;
#X connect 30 3 20 0;
#X connect 30 4 29 0;
