#N canvas 135 146 1578 852 12;
#X obj 412 225 readsf~ 2;
#X obj 401 602 dac~;
#X msg 299 214 start;
#X floatatom 866 425 5 0 0 0 - - -;
#X obj 467 365 delwrite~ \$0-echo-del 2000;
#X obj 392 466 +~;
#X obj 317 119 bng 19 250 50 0 empty empty empty 0 -10 0 12 -262144
-1 -1;
#X msg 36 564 open ./audio/outfile.wav;
#X obj 221 603 writesf~ 2;
#X msg 344 316 stop;
#X obj 294 173 del 1 100 msec;
#X msg 160 152 \; pd dsp 1;
#X obj 851 108 netreceive -u -b;
#X msg 850 65 listen 1337;
#X obj 851 153 oscparse;
#X obj 1101 240 print z3;
#X obj 1030 236 print z2;
#X obj 960 260 print z1;
#X obj 929 287 print z0;
#X obj 849 20 loadbang;
#X obj 966 467 del 50 100 msec;
#X msg 965 515 \; pd quit;
#X text 1155 194 <-- name \, 1-rvb \, rvb \, lpf \, start;
#X obj 855 197 unpack symbol float float float float;
#X msg 410 170 open ./audio/tempExchanges.wav;
#X msg 1271 328 \; pd dsp 0;
#X obj 1213 276 select 0 1 2;
#X obj 404 305 *~ 0.5;
#X obj 467 305 *~ 0.5;
#X obj 295 481 lop~ 100;
#X obj 388 532 lop~ 100;
#X obj 392 503 +~;
#X obj 466 483 *~ 0.3;
#X obj 466 391 delread~ \$0-echo-del 500;
#X obj 468 441 delread~ \$0-echo-del 250;
#X connect 0 0 27 0;
#X connect 0 0 28 0;
#X connect 0 2 9 0;
#X connect 2 0 0 0;
#X connect 2 0 8 0;
#X connect 3 0 30 1;
#X connect 5 0 31 0;
#X connect 6 0 24 0;
#X connect 6 0 10 0;
#X connect 6 0 11 0;
#X connect 6 0 7 0;
#X connect 7 0 8 0;
#X connect 9 0 8 0;
#X connect 10 0 2 0;
#X connect 12 0 14 0;
#X connect 13 0 12 0;
#X connect 14 0 23 0;
#X connect 19 0 13 0;
#X connect 20 0 21 0;
#X connect 23 0 18 0;
#X connect 23 1 17 0;
#X connect 23 1 27 1;
#X connect 23 2 16 0;
#X connect 23 2 28 1;
#X connect 23 3 3 0;
#X connect 23 3 15 0;
#X connect 23 4 26 0;
#X connect 24 0 0 0;
#X connect 26 1 6 0;
#X connect 26 2 25 0;
#X connect 27 0 5 0;
#X connect 28 0 4 0;
#X connect 30 0 1 0;
#X connect 30 0 1 1;
#X connect 30 0 8 0;
#X connect 30 0 8 1;
#X connect 31 0 30 0;
#X connect 32 0 31 1;
#X connect 33 0 5 1;
#X connect 34 0 32 0;
